<svg xmlns="http://www.w3.org/2000/svg" viewBox="0 0 64 64">
  <rect width="64" height="64" rx="8" fill="#20231f"/>
  <rect x="8" y="8" width="48" height="48" rx="3" fill="#8f3d2c"/>
  <path d="M17 39.5c2.9 2.4 6.1 3.6 9.5 3.6 3.8 0 5.7-1.2 5.7-3.5 0-1.9-1.3-2.8-5.8-3.9-6.4-1.5-9-4.2-9-8.8 0-5.5 4.5-9.2 11.3-9.2 4.4 0 8.1 1.2 11.1 3.5l-4.2 5.7c-2.3-1.7-4.7-2.5-7.1-2.5-2.9 0-4.4.9-4.4 2.7 0 1.6 1.2 2.4 5.7 3.5 6.5 1.6 9.3 4.3 9.3 9 0 6-4.7 9.8-12.7 9.8-5.5 0-10-1.5-13.6-4.6z" fill="#181815"/>
  <path d="M43 17h4v30h-4z" fill="#181815" opacity=".38"/>
</svg>
